<?xml version="1.0" encoding="UTF-8"?>
<svg version="1.1" xmlns="http://www.w3.org/2000/svg" width="512" height="512">
<path d="M0 0 C15.10579016 11.52687988 25.62183494 27.16297017 28.3515625 46.1875 C29.7097306 66.90495308 26.17987742 86.0152091 12.37182617 102.1472168 C3.12587232 112.35416742 -8.91298995 120.65114533 -22.6484375 123.1875 C-22.5878373 143.87629053 -22.51029098 164.56495627 -22.41272259 185.2536068 C-22.36780962 194.86030351 -22.3283846 204.46696352 -22.30200195 214.07373047 C-22.27898542 222.44967075 -22.24554662 230.82549446 -22.19973594 239.20134223 C-22.17585296 243.63386284 -22.15709196 248.06626835 -22.15082359 252.49885178 C-22.14475039 256.67676644 -22.12467034 260.85438679 -22.09416199 265.03219223 C-22.08541745 266.55990043 -22.0816517 268.08764714 -22.08342934 269.61537933 C-22.0941277 283.06040232 -20.63627045 293.08949004 -10.94921875 302.91015625 C-4.01542459 309.25185113 3.38439532 311.31969873 12.70239258 311.30102539 C13.9633223 311.30094986 15.22425201 311.30087433 16.52339172 311.30079651 C17.88929281 311.29569069 19.25519348 311.2904747 20.62109375 311.28515625 C22.02642262 311.2832897 23.43175215 311.28186692 24.83708191 311.28086853 C28.52450375 311.277062 32.2118858 311.26724774 35.89929199 311.25616455 C39.66657971 311.24591025 43.4338741 311.24130742 47.20117188 311.23632812 C54.58467048 311.22615521 61.96806003 311.20657882 69.3515625 311.1875 C61.1015625 302.9375 52.8515625 294.6875 44.3515625 286.1875 C47.83689355 282.12128044 51.11341103 278.30073733 54.875 274.56640625 C55.66777344 273.77685547 56.46054688 272.98730469 57.27734375 272.17382812 C58.08558594 271.37396484 58.89382812 270.57410156 59.7265625 269.75 C60.55800781 268.92306641 61.38945312 268.09613281 62.24609375 267.24414062 C64.2789729 265.22294469 66.31416213 263.20413665 68.3515625 261.1875 C72.27734685 262.78424868 74.95069879 265.48412337 77.89868164 268.42822266 C78.44064682 268.96186432 78.982612 269.49550598 79.54100037 270.0453186 C81.32837857 271.80863151 83.10803388 273.57948339 84.88671875 275.3515625 C86.12927425 276.58514789 87.37190538 277.8186571 88.61460876 279.05209351 C91.21824267 281.63924345 93.81745482 284.23075071 96.41430664 286.82470703 C99.73354555 290.13856795 103.06861999 293.43598269 106.40793705 296.72959328 C108.98071691 299.27254521 111.54208624 301.82676178 114.10049248 304.38416672 C115.32473955 305.60422167 116.55308772 306.82017637 117.7856617 308.03181839 C119.51386094 309.73299056 121.22535974 311.44946276 122.93383789 313.17041016 C123.69369492 313.90801575 123.69369492 313.90801575 124.46890259 314.66052246 C128.66123369 318.94002988 131.05637773 323.69895273 131.56640625 329.7265625 C131.42912109 330.75910156 131.42912109 330.75910156 131.2890625 331.8125 C131.21558594 332.50601562 131.14210938 333.19953125 131.06640625 333.9140625 C129.26552095 339.6414682 124.94093101 343.88426002 120.75683594 348.00927734 C120.21005188 348.55635345 119.66326782 349.10342957 119.09991455 349.66708374 C117.30829295 351.45732243 115.5097134 353.24038988 113.7109375 355.0234375 C112.46068351 356.26995767 111.21087308 357.51692287 109.96148682 358.76431274 C106.68454522 362.033647 103.40164046 365.29692824 100.11743164 368.55895996 C96.76214558 371.89372502 93.41256966 375.23421484 90.0625 378.57421875 C83.49774451 385.11757549 76.92667124 391.65454798 70.3515625 398.1875 C66.53906371 396.4116334 64.11806754 394.18384812 61.1484375 391.1796875 C60.6657843 390.69420441 60.1831311 390.20872131 59.68585205 389.70852661 C58.15297688 388.16450134 56.62722246 386.61365176 55.1015625 385.0625 C54.06035889 384.01125991 53.01869709 382.96047343 51.9765625 381.91015625 C49.42956786 379.34116996 46.88891073 376.76601839 44.3515625 374.1875 C49.31351105 368.19249003 54.6992249 362.72322963 60.2265625 357.25 C61.10570312 356.37537109 61.98484375 355.50074219 62.890625 354.59960938 C65.0419971 352.45992952 67.19568042 350.32263403 69.3515625 348.1875 C68.54771118 348.18385437 67.74385986 348.18020874 66.91564941 348.17645264 C59.26797774 348.13828037 51.62077762 348.0811041 43.97341156 348.00359726 C40.04362029 347.96441138 36.11404341 347.93208384 32.18408203 347.91650391 C28.3777 347.90114358 24.57190863 347.86636695 20.76579285 347.81919098 C19.3277048 347.80457352 17.88953232 347.79647055 16.45137024 347.79561615 C-4.41895572 347.77079266 -23.29983087 341.92606662 -38.6484375 327.1875 C-43.83532681 321.86092785 -47.55632349 315.93549268 -50.9609375 309.375 C-51.28666748 308.76003662 -51.61239746 308.14507324 -51.94799805 307.51147461 C-57.57517286 296.08589496 -58.08114738 284.03170903 -57.98901367 271.56518555 C-57.98816542 269.93767309 -57.98864641 268.3101595 -57.99034119 266.68264771 C-57.99119483 262.3053549 -57.97367254 257.92831344 -57.95261931 253.55107856 C-57.9337461 248.96137787 -57.93209374 244.37167015 -57.92854309 239.78193665 C-57.91925368 231.10894419 -57.89468234 222.43606645 -57.86449462 213.76312429 C-57.83085345 203.88152765 -57.81444027 193.99992527 -57.79940832 184.11828554 C-57.7681297 163.8079599 -57.71543019 143.4977372 -57.6484375 123.1875 C-58.33088531 122.98761475 -59.01333313 122.78772949 -59.71646118 122.58178711 C-60.61392059 122.3163208 -61.51138 122.05085449 -62.43603516 121.77734375 C-63.32473297 121.5155835 -64.21343079 121.25382324 -65.12905884 120.98413086 C-79.84479951 116.33099423 -91.87049955 105.27618053 -99.6484375 92.1875 C-100.33679688 91.03894531 -100.33679688 91.03894531 -101.0390625 89.8671875 C-109.30596882 74.77759343 -111.28365128 56.36585 -107.4609375 39.625 C-106.89889191 37.79899935 -106.29483411 35.98537236 -105.6484375 34.1875 C-105.31972656 33.20910156 -104.99101563 32.23070312 -104.65234375 31.22265625 C-101.65381574 23.16086988 -97.13884751 16.76066103 -91.6484375 10.1875 C-90.83439453 9.20136719 -90.83439453 9.20136719 -90.00390625 8.1953125 C-67.42475263 -16.61317527 -26.79590851 -18.33820287 0 0 Z " fill="#FEC00D" transform="translate(159.6484375,62.8125)"/>
<path d="M0 0 C3.81249879 1.7758666 6.23349496 4.00365188 9.203125 7.0078125 C9.6857782 7.49329559 10.1684314 7.97877869 10.66571045 8.47897339 C12.19858562 10.02299866 13.72434004 11.57384824 15.25 13.125 C16.29120361 14.17624009 17.33286541 15.22702657 18.375 16.27734375 C20.92199464 18.84633004 23.46265177 21.42148161 26 24 C21.03805145 29.99500997 15.6523376 35.46427037 10.125 40.9375 C9.24585938 41.81212891 8.36671875 42.68675781 7.4609375 43.58789062 C5.3095654 45.72757048 3.15588208 47.86486597 1 50 C2.22790001 50.00546844 2.22790001 50.00546844 3.48060608 50.01104736 C11.26103103 50.04918819 19.04099083 50.10633057 26.82111454 50.18390274 C30.8193157 50.22312143 34.81730506 50.25543343 38.81567383 50.27099609 C42.68688617 50.28633409 46.55751515 50.32107382 50.42846489 50.36830902 C51.89249995 50.38294876 53.35661839 50.39103079 54.82072639 50.39188385 C75.43748852 50.4159379 93.88896402 56.48956163 109 71 C114.18688931 76.32657215 117.90788599 82.25200732 121.3125 88.8125 C121.63822998 89.42746338 121.96395996 90.04242676 122.29956055 90.67602539 C127.92673536 102.10160504 128.43270988 114.15579097 128.34057617 126.62231445 C128.33972792 128.24982691 128.34020891 129.8773405 128.34190369 131.50485229 C128.34275733 135.8821451 128.32523504 140.25918656 128.30418181 144.63642144 C128.2853086 149.22612213 128.28365624 153.81582985 128.28010559 158.40556335 C128.27081618 167.07855581 128.24624484 175.75143355 128.21605712 184.42437571 C128.18241595 194.30597235 128.16600277 204.18757473 128.15097082 214.06921446 C128.1196922 234.3795401 128.06699269 254.6897628 128 275 C128.6862999 275.20079163 129.37259979 275.40158325 130.07969666 275.60845947 C131.43037987 276.00771637 131.43037987 276.00771637 132.80834961 276.41503906 C133.70089951 276.67770569 134.5934494 276.94037231 135.51304626 277.21099854 C150.68677188 282.0249569 163.88937177 294.52539476 171.65234375 308.1484375 C179.85811575 325.51137536 182.02077263 345.18303241 176.2578125 363.640625 C169.80735497 380.86855505 157.92032036 396.00341024 141 404 C121.35029654 411.75978906 101.51872622 412.74315153 81.765625 404.6796875 C66.2791985 397.48675337 52.51200538 384.43287723 46.55859375 368.2109375 C39.81021425 348.81052293 39.61646791 329.0167522 48.58349609 310.23388672 C57.05661963 293.6045894 70.7003519 282.75661223 88 276 C89.66230846 275.6455716 91.32858429 275.3086396 93 275 C92.9393998 254.31120947 92.86185348 233.62254373 92.76428509 212.9338932 C92.71937212 203.32719649 92.6799471 193.72053648 92.65356445 184.11376953 C92.63054792 175.73782925 92.59710912 167.36200554 92.55129844 158.98615777 C92.52741546 154.55363716 92.50865446 150.12123165 92.50238609 145.68864822 C92.49631289 141.51073356 92.47623284 137.33311321 92.44572449 133.15530777 C92.43697995 131.62759957 92.4332142 130.09985286 92.43499184 128.57212067 C92.4456902 115.12709768 90.98783295 105.09800996 81.30078125 95.27734375 C74.36698709 88.93564887 66.96716718 86.86780127 57.64916992 86.88647461 C56.3882402 86.88655014 55.12731049 86.88662567 53.82817078 86.88670349 C52.46226969 86.89180931 51.09636902 86.8970253 49.73046875 86.90234375 C48.32513988 86.9042103 46.91981035 86.90563308 45.51448059 86.90663147 C41.82705875 86.910438 38.1396767 86.92025226 34.45227051 86.93133545 C30.68498279 86.94158975 26.9176884 86.94619258 23.15039062 86.95117188 C15.76689202 86.96134479 8.38350247 86.98092118 1 87 C9.25 95.25 17.5 103.5 26 112 C22.51466895 116.06621956 19.23815147 119.88676267 15.4765625 123.62109375 C14.28740234 124.80541992 14.28740234 124.80541992 13.07421875 126.01367188 C11.86185547 127.2134668 11.86185547 127.2134668 10.625 128.4375 C9.79355469 129.26443359 8.96210938 130.09136719 8.10546875 130.94335938 C6.0725896 132.96455531 4.03740037 134.98336335 2 137 C-1.92578435 135.40325132 -4.59913629 132.70337663 -7.54711914 129.75927734 C-8.36006691 128.95881485 -8.36006691 128.95881485 -9.18943787 128.1421814 C-10.97681607 126.37886849 -12.75647138 124.60801661 -14.53515625 122.8359375 C-15.77771175 121.60235211 -17.02034288 120.3688429 -18.26304626 119.13540649 C-20.86668017 116.54825655 -23.46589232 113.95674929 -26.06274414 111.36279297 C-29.38198305 108.04893205 -32.71705749 104.75151731 -36.05637455 101.45790672 C-38.62915441 98.91495479 -41.19052374 96.36073822 -43.74892998 93.80333328 C-44.97317705 92.58327833 -46.20152522 91.36732363 -47.4340992 90.15568161 C-49.16229844 88.45450944 -50.87379724 86.73803724 -52.58227539 85.01708984 C-53.08884674 84.52535278 -53.59541809 84.03361572 -54.11734009 83.52697754 C-58.30967119 79.24747012 -60.70481523 74.48854727 -61.21484375 68.4609375 C-61.12332031 67.77257812 -61.03179687 67.08421875 -60.9375 66.375 C-60.86402344 65.68148437 -60.79054687 64.98796875 -60.71484375 64.2734375 C-58.91395845 58.5460318 -54.58936851 54.30323998 -50.40527344 50.17822266 C-49.85848938 49.63114655 -49.31170532 49.08407043 -48.74835205 48.52041626 C-46.95673045 46.73017757 -45.1581509 44.94711012 -43.359375 43.1640625 C-42.10912101 41.91754233 -40.85931058 40.67057713 -39.60992432 39.42318726 C-36.33298272 36.153853 -33.05007796 32.89057176 -29.76586914 29.62854004 C-26.41058308 26.29377498 -23.06100716 22.95328516 -19.7109375 19.61328125 C-13.14618201 13.06992451 -6.57510874 6.53295202 0 0 Z " fill="#FEC00D" transform="translate(282,51)"/>
<path d="M0 0 C15.10579016 11.52687988 25.62183494 27.16297017 28.3515625 46.1875 C29.7097306 66.90495308 26.17987742 86.0152091 12.37182617 102.1472168 C-0.25619819 116.08776023 -16.78209538 124.11925985 -35.5625 125.46875 C-53.89951599 126.11701705 -71.46352387 121.01476033 -85.6328125 109.08984375 C-98.76573599 96.69501092 -108.25389072 81.01905583 -108.8515625 62.52734375 C-108.99434514 52.70444398 -109.0121261 43.5431845 -105.6484375 34.1875 C-105.31972656 33.20910156 -104.99101563 32.23070312 -104.65234375 31.22265625 C-101.65381574 23.16086988 -97.13884751 16.76066103 -91.6484375 10.1875 C-90.83439453 9.20136719 -90.83439453 9.20136719 -90.00390625 8.1953125 C-67.42475263 -16.61317527 -26.79590851 -18.33820287 0 0 Z " fill="#E53A34" transform="translate(159.6484375,62.8125)"/>
<path d="M0 0 C0.79664063 0.42023438 1.59328125 0.84046875 2.4140625 1.2734375 C18.76270501 10.4347511 29.76743584 25.05670222 35.3125 42.8125 C39.82719672 61.0371329 37.56181039 79.67597361 28.6875 96.2265625 C17.61687447 114.42134057 1.79870046 124.28945616 -18.33203125 129.6171875 C-37.2277016 132.32842571 -55.76829759 129.05532437 -71.6484375 118.1875 C-86.75422766 106.66062012 -97.27027244 91.02452983 -100 72 C-101.3581681 51.28254692 -97.82831492 32.1722909 -84.02026367 16.0402832 C-63.43958681 -6.67948763 -27.62960249 -15.09870471 0 0 Z " fill="#7CB342" transform="translate(424,331)"/>
<path d="M0 0 C7.01952074 4.88430531 13.1497337 12.0937074 14.7421875 20.6796875 C15.66641725 32.98991426 14.87722274 42.81288337 6.765625 52.6015625 C0.57630121 58.95816531 -6.21476973 62.23758589 -15.08984375 63.015625 C-26.9561832 63.13207583 -35.35055119 61.45923186 -44.2109375 53.1015625 C-51.26292868 44.75760347 -54.0900525 35.39092455 -53.2578125 24.6796875 C-51.39913773 14.3624674 -46.2301861 6.30394738 -37.73828125 0.1875 C-25.31365947 -7.36510473 -12.5226194 -7.32291584 0 0 Z " fill="#F0F6E8" transform="translate(411.2578125,363.3203125)"/>
<path d="M0 0 C7.02818942 4.89033712 13.13326972 12.08992812 14.7421875 20.6796875 C15.53302592 29.95495288 15.43188089 38.3647377 10.7421875 46.6796875 C10.21625 47.64455078 10.21625 47.64455078 9.6796875 48.62890625 C6.46651508 53.77221349 1.96278986 56.74975761 -3.2578125 59.6796875 C-3.85078125 60.02257812 -4.44375 60.36546875 -5.0546875 60.71875 C-12.92815519 64.44645373 -24.62300736 64.02204847 -32.6953125 61.1796875 C-42.75527999 56.31032508 -48.16802769 48.90414953 -52.2578125 38.6796875 C-55.04027116 29.75192138 -53.28108236 20.90115199 -49.2578125 12.6796875 C-44.11096969 3.87828175 -36.73650756 -1.46592709 -27.11328125 -4.625 C-17.36479858 -6.99877553 -8.58569808 -5.02070233 0 0 Z " fill="#FBE9EC" transform="translate(138.2578125,90.3203125)"/>
<path d="M0 0 C4.25851123 3.0360868 7.63297219 6.3825438 10.70703125 10.609375 C10.70703125 11.269375 10.70703125 11.929375 10.70703125 12.609375 C10.13597656 12.465 9.56492187 12.320625 8.9765625 12.171875 C-2.2039505 9.6122663 -11.25702537 9.27431229 -21.5390625 14.80859375 C-29.60624117 20.08372761 -34.35965723 26.47714191 -37.29296875 35.609375 C-38.44860299 43.40770072 -37.21130901 51.02165414 -35.29296875 58.609375 C-42.00633939 56.3793684 -46.26648524 51.2454654 -49.66015625 45.15625 C-53.9079816 35.79243062 -54.66120826 26.91116578 -51.32421875 17.0546875 C-47.09538996 7.02723741 -39.97272128 0.27409929 -29.91796875 -3.828125 C-19.3126288 -7.24014941 -9.51010001 -5.76762454 0 0 Z " fill="#D9EAC5" transform="translate(411.29296875,363.390625)"/>
<path d="M0 0 C4.25851123 3.0360868 7.63297219 6.3825438 10.70703125 10.609375 C10.70703125 11.269375 10.70703125 11.929375 10.70703125 12.609375 C9.69640625 12.279375 8.68578125 11.949375 7.64453125 11.609375 C-1.09106878 9.46433442 -11.23328353 8.99905139 -19.30859375 13.35546875 C-19.9634375 13.76925781 -20.61828125 14.18304688 -21.29296875 14.609375 C-21.9890625 15.03347656 -22.68515625 15.45757812 -23.40234375 15.89453125 C-30.50617598 20.6882827 -35.07842694 27.34039778 -37.29296875 35.609375 C-37.87621143 43.48315123 -37.75253639 51.07694911 -35.29296875 58.609375 C-42.00633939 56.3793684 -46.26648524 51.2454654 -49.66015625 45.15625 C-53.73406631 36.17580592 -54.86507865 27.44687461 -51.66796875 17.921875 C-47.84109147 8.52863077 -41.86097833 1.82350735 -32.72265625 -2.6484375 C-21.2879564 -7.30701892 -10.59522974 -6.42572706 0 0 Z " fill="#F8CAD0" transform="translate(138.29296875,90.390625)"/>
<path d="M0 0 C3.3 0.33 6.6 0.66 10 1 C12.68645431 1.08576474 15.37468241 1.13038102 18.0625 1.125 C19.99802734 1.12886719 19.99802734 1.12886719 21.97265625 1.1328125 C26.32912257 0.9891463 30.66782522 0.48135275 35 0 C35 6.93 35 13.86 35 21 C31.34592496 21.73081501 28.60602176 22.12797059 24.98046875 22.1328125 C24.04009766 22.13410156 23.09972656 22.13539063 22.13085938 22.13671875 C21.15955078 22.13285156 20.18824219 22.12898438 19.1875 22.125 C17.74793945 22.13080078 17.74793945 22.13080078 16.27929688 22.13671875 C15.33505859 22.13542969 14.39082031 22.13414062 13.41796875 22.1328125 C12.57000732 22.13168457 11.7220459 22.13055664 10.84838867 22.12939453 C7.21646115 21.96440597 3.60759797 21.45094975 0 21 C0 14.07 0 7.14 0 0 Z " fill="#F68E1D" transform="translate(102,186)"/>
<path d="M0 0 C0.79535156 -0.00128906 1.59070313 -0.00257813 2.41015625 -0.00390625 C3.21324219 -0.00003906 4.01632812 0.00382812 4.84375 0.0078125 C5.64683594 0.00394531 6.44992187 0.00007813 7.27734375 -0.00390625 C8.07269531 -0.00261719 8.86804688 -0.00132812 9.6875 0 C10.39068359 0.00112793 11.09386719 0.00225586 11.81835938 0.00341797 C15.34234013 0.18397769 18.84239488 0.69514311 22.34375 1.1328125 C22.34375 8.0628125 22.34375 14.9928125 22.34375 22.1328125 C19.04375 21.8028125 15.74375 21.4728125 12.34375 21.1328125 C9.65729569 21.04704776 6.96906759 21.00243148 4.28125 21.0078125 C2.99089844 21.00523437 1.70054687 21.00265625 0.37109375 21 C-3.98537257 21.1436662 -8.32407522 21.65145975 -12.65625 22.1328125 C-12.65625 15.2028125 -12.65625 8.2728125 -12.65625 1.1328125 C-3.64046541 0.00583943 -3.64046541 0.00583943 0 0 Z " fill="#F58F1D" transform="translate(387.65625,303.8671875)"/>
</svg>
